<svg width="222" height="272" viewBox="0 0 222 272" fill="none" xmlns="http://www.w3.org/2000/svg">
<g clip-path="url(#clip0_1071_253)">
<path d="M76.5739 36.4905L78.5883 25.9227L78.2158 20.9424L75.0703 23.0807L71.0004 27.592C71.0004 27.592 69.1517 32.3378 69.3035 33.0276C69.4552 33.7174 68.8344 37.4699 68.8344 37.4699L69.1379 38.8495L76.7257 37.1803L76.5739 36.4905Z" fill="#FFE29E"/>
<path d="M195.895 125.228L198.97 191.807L174.51 202.25L129.121 219.467L114.166 227.096L103.046 232.435L100.77 222.088L93.9002 174.423L195.895 125.228Z" fill="#ECD0A0"/>
<path d="M148.45 100.229L195.895 125.228L179.712 133.85L119.051 163.828L97.8874 172.823L93.9004 174.423L83.7328 164.366L60.2661 139.877L54.7615 134.58L148.45 100.229Z" fill="#FFE29E"/>
<path d="M138.461 186.315C137.923 187.157 138.613 187.005 138.613 187.005C138.613 187.005 139.303 186.854 141.138 188.619C142.973 190.385 142.669 189.006 143.897 188.012C143.952 187.964 144.014 187.922 144.072 187.887C144.757 187.91 145.439 187.854 146.104 187.722C146.257 187.696 146.409 187.662 146.565 187.614C146.903 187.575 147.274 187.486 147.691 187.279C148.337 187.057 148.955 186.777 149.563 186.448C150.408 186.247 150.795 186.495 150.795 186.495L155.1 183.414C155.137 183.45 155.174 183.485 155.203 183.522L155.472 184.743C155.472 184.743 156.465 185.971 156.617 186.661C156.708 187.074 157.504 188.36 158.138 189.334C158.649 191.196 158.948 193.148 159.23 195.053C160.028 190.727 160.194 186.286 159.715 181.907C159.749 181.799 159.791 181.695 159.845 181.611C160.383 180.77 160.383 180.77 160.383 180.77L161.915 181.156C161.915 181.156 162.118 181.162 162.423 181.167C163.249 181.405 164.119 181.38 164.958 181.152C165.194 181.136 165.391 181.114 165.515 181.087C166.205 180.935 168.123 179.79 168.123 179.79L168.689 178.552C169.905 176.947 170.599 174.972 171.262 173.054C171.157 173.301 171.021 173.534 170.872 173.747L171.048 173.361L169.13 174.506C169.13 174.506 167.665 175.147 166.283 175.668C165.596 175.602 164.932 175.408 164.336 175.069C163.491 174.583 162.809 173.879 162.303 173.058C162.301 173.051 162.301 173.051 162.301 173.051C162.192 172.655 161.81 171.705 161.444 170.831C161.32 170.2 161.278 169.552 161.319 168.913C161.977 168.356 162.604 167.756 163.195 167.119L164.398 166.146L159.211 155.716L154.3 159.689L151.451 148.384L141.828 152.308L141.29 153.15C141.29 153.15 141.285 153.158 141.279 153.167C141.205 153.291 140.764 154.047 140.904 154.681C141.055 155.371 141.662 158.13 141.662 158.13C141.662 158.13 142.339 159.269 143.106 160.351C143.335 160.67 143.572 160.993 143.801 161.276C144.495 162.128 143.997 163.944 143.629 164.966C142.725 165.164 141.813 165.322 140.889 165.431C139.261 165.261 137.425 165.166 137.51 165.552C137.661 166.242 142.545 175.293 142.545 175.293C142.545 175.293 143.235 175.141 143.925 174.989C144.615 174.837 149.057 175.306 149.057 175.306L149.209 175.996C149.209 175.996 148.822 177.528 148.974 178.217C148.992 178.3 149.001 178.371 148.994 178.437C148.956 178.561 148.916 178.678 148.869 178.79C148.863 178.799 148.863 178.799 148.863 178.799C148.698 179.001 148.436 179.059 148.436 179.059C148.436 179.059 148.022 179.707 148.021 180.329L148.023 180.336C147.826 180.625 147.605 180.905 147.367 181.167C146.785 181.382 145.882 181.718 144.904 182.729C144.427 183.224 144.162 183.463 143.985 183.582C143.895 183.63 143.803 183.672 143.704 183.716C143.697 183.717 143.692 183.726 143.676 183.722C143.594 183.74 143.518 183.757 143.367 183.862C143.36 183.864 143.36 183.864 143.354 183.865C141.746 184.544 140.016 184.968 138.315 185.386C138.459 185.549 138.611 185.711 138.766 185.858C138.677 185.979 138.585 186.122 138.461 186.315Z" fill="#ECD0A0"/>
<path d="M20.7957 111.678C34.6122 129.611 50.4941 134.578 54.8662 135.649L60.3066 192.661L100.673 231.511L93.2103 174.575L56.0378 135.912L56.0362 135.905L55.3362 134.366L64.2306 131.108L65.4117 133.683L95.9144 163.855L174.29 125.641L140.242 105.65L139.242 103.607L148.45 100.229L111.064 28.903L17.5543 50.9205L17.8494 51.5715C16.5314 55.6726 5.53147 91.8652 20.7957 111.678Z" fill="#ECD0A0"/>
<path d="M138.613 187.005C138.613 187.005 139.302 186.853 141.137 188.619C142.972 190.385 142.669 189.006 143.897 188.012C143.951 187.964 144.014 187.921 144.071 187.887C144.868 187.365 145.588 187.713 146.564 187.614C146.903 187.575 147.274 187.486 147.691 187.279C147.804 187.232 147.92 187.171 148.035 187.102C148.656 186.734 149.163 186.543 149.562 186.448C150.407 186.247 150.795 186.495 150.795 186.495L155.1 183.414L155.168 183.363L155.471 184.743C155.471 184.743 156.465 185.971 156.616 186.66C156.707 187.074 157.504 188.36 158.138 189.334C158.563 189.986 158.907 190.496 158.907 190.496C158.907 190.496 159.596 190.344 159.293 188.964C158.989 187.585 159.831 188.123 159.376 186.053C158.92 183.984 159.762 184.522 159.762 184.522C159.762 184.522 159.395 182.853 159.715 181.907C159.749 181.799 159.791 181.695 159.845 181.611C160.383 180.77 160.383 180.77 160.383 180.77L161.914 181.156C161.914 181.156 162.118 181.162 162.423 181.167C163.077 181.182 164.222 181.191 164.958 181.152C165.193 181.136 165.391 181.114 165.515 181.087C166.205 180.935 168.122 179.79 168.122 179.79L168.689 178.552L170.866 173.755L170.872 173.747L171.047 173.361L169.13 174.506C169.13 174.506 167.665 175.147 166.283 175.668C165.588 175.929 164.915 176.157 164.453 176.258C163.073 176.562 162.466 173.803 162.314 173.113L162.302 173.058C162.301 173.051 162.301 173.051 162.301 173.051C162.192 172.655 161.809 171.705 161.444 170.831C161.185 170.215 160.934 169.634 160.811 169.336C160.746 169.206 160.714 169.126 160.714 169.126L161.353 168.609L163.194 167.119L164.398 166.146L159.21 155.716L154.299 159.689L151.45 148.383L141.827 152.308L141.289 153.15C141.289 153.15 141.284 153.158 141.279 153.167C141.205 153.291 140.764 154.047 140.903 154.681C141.055 155.371 141.662 158.13 141.662 158.13C141.662 158.13 142.339 159.269 143.105 160.351C143.334 160.669 143.572 160.993 143.8 161.276C144.494 162.128 143.997 163.944 143.628 164.966C143.468 165.42 143.331 165.718 143.331 165.718C143.331 165.718 142.174 165.553 140.889 165.431C139.26 165.261 137.424 165.166 137.509 165.552C137.661 166.242 142.545 175.292 142.545 175.292C142.545 175.292 143.234 175.141 143.924 174.989C144.614 174.837 149.056 175.306 149.056 175.306L149.208 175.996C149.208 175.996 148.822 177.527 148.974 178.217C148.992 178.3 149 178.371 148.993 178.437C148.989 178.583 148.936 178.703 148.868 178.79C148.863 178.798 148.863 178.798 148.863 178.798C148.698 179.001 148.435 179.059 148.435 179.059C148.435 179.059 148.021 179.707 148.021 180.329L148.022 180.336C148.02 180.423 148.031 180.507 148.049 180.59C148.117 180.901 147.848 180.989 147.366 181.167C146.784 181.382 145.882 181.718 144.904 182.728C144.427 183.224 144.161 183.463 143.985 183.581C143.854 183.675 143.772 183.701 143.703 183.716C143.697 183.717 143.691 183.726 143.676 183.722C143.593 183.74 143.517 183.757 143.367 183.862C143.36 183.864 143.36 183.864 143.353 183.865C143.18 183.997 142.914 184.237 142.448 184.715C140.682 186.55 141.758 184.867 140.379 185.17C139.309 185.406 139.068 185.459 138.765 185.858C138.676 185.979 138.585 186.122 138.461 186.315C137.923 187.157 138.613 187.005 138.613 187.005Z" fill="#FFE29E"/>
<path d="M96.8392 161.482L156.811 131.656C156.811 131.656 154.686 121.999 150.851 124.289C147.016 126.579 147.611 118.797 144.944 118.508C142.277 118.22 138.31 113.307 134.779 116.977C131.247 120.646 129.55 126.082 129.55 126.082C129.55 126.082 126.791 126.689 124.487 129.365C122.183 132.042 122.348 126.22 122.348 126.22L119.032 123.637L115.189 122.899L111.353 123.743L109.711 124.661C109.711 124.661 109.09 125.882 109.356 126.728C109.621 127.573 109.613 129.246 109.613 129.246L109.008 131.324C109.008 131.324 106.097 131.241 104.482 133.766L105.407 131.393L101.199 128.703C101.199 128.703 97.4603 128.441 96.9878 129.449C96.5153 130.456 92.9869 133.945 93.3293 133.956C93.6732 133.974 93.4387 136.196 92.9006 137.037C92.3626 137.879 91.59 140.941 90.6656 143.314C89.7413 145.687 88.9825 142.238 88.9825 142.238L82.8571 140.693L78.9879 142.73L96.8392 161.482Z" fill="#FEBA35"/>
<path d="M137.667 235.305C132.524 236.437 127.812 234.883 127.141 231.835C126.471 228.788 130.096 225.4 135.239 224.268C140.382 223.137 145.095 224.69 145.766 227.738C146.436 230.786 142.81 234.174 137.667 235.305Z" fill="#FEBA35"/>
<path d="M114.179 256.744C108.084 258.085 102.429 255.929 101.549 251.929C100.669 247.929 104.897 243.599 110.992 242.258C117.088 240.917 122.743 243.073 123.623 247.073C124.503 251.073 120.275 255.403 114.179 256.744Z" fill="#FEBA35"/>
<path d="M84.1597 251.777C78.0642 253.118 72.4095 250.962 71.5295 246.962C70.6495 242.962 74.8775 238.632 80.9729 237.291C87.0684 235.95 92.7231 238.106 93.6031 242.106C94.4831 246.106 90.2551 250.436 84.1597 251.777Z" fill="#FEBA35"/>
<path d="M139.316 216.501L198.97 191.807L196.046 125.917L94.0027 174.661L102.829 232.664L120.137 223.931" stroke="#775625" stroke-width="3" stroke-miterlimit="10"/>
<path d="M60.3065 192.661L100.673 231.511L93.2101 174.575L56.0376 135.911L56.0361 135.905L54.7611 134.58L54.8661 135.649L60.3065 192.661Z" stroke="#775625" stroke-width="3" stroke-miterlimit="10"/>
<path d="M54.7613 134.58L55.3364 134.367L64.2307 131.108L138.841 103.753L139.242 103.607L148.45 100.229L196.315 125.497" stroke="#775625" stroke-width="3" stroke-miterlimit="10"/>
<path d="M30.5641 57.4596L64.2309 131.108L65.4121 133.683L95.9147 163.855L174.29 125.641L140.242 105.65L139.243 103.606L139.074 103.267L107.367 38.3943L30.5641 57.4596Z" stroke="#775625" stroke-width="3" stroke-miterlimit="10"/>
<path d="M17.975 51.1895C17.975 51.1895 17.9319 51.322 17.8494 51.5715M17.8494 51.5715C16.5314 55.6727 5.53147 91.8653 20.7957 111.678C34.6122 129.611 50.4941 134.578 54.8662 135.649C55.625 135.843 56.0378 135.912 56.0378 135.912L56.0362 135.905L55.3362 134.367L17.8494 51.5715ZM17.8494 51.5715L17.5543 50.9205L111.064 28.9031L148.45 100.229" stroke="#775625" stroke-width="3" stroke-miterlimit="10"/>
<path d="M107.366 38.3946C107.366 38.3946 76.5663 93.9853 139.366 103.312" stroke="#775625" stroke-width="3" stroke-miterlimit="10"/>
<path d="M81.9542 64.234C81.9542 64.234 80.9883 86.142 95.0601 97.5101" stroke="#775625" stroke-width="3" stroke-miterlimit="10"/>
<path d="M62.2531 70.0146C62.2531 70.0146 58.7625 90.3085 74.0483 107.195" stroke="#775625" stroke-width="3" stroke-miterlimit="10"/>
<path d="M143.476 223.903C143.476 223.903 157.092 233.202 132.797 237.823C123.375 237.726 127.693 224.482 135.584 224.193" stroke="#775625" stroke-width="3" stroke-miterlimit="10"/>
<path d="M122.671 244.39C122.671 244.39 126.617 262.324 104.033 254.998C96.2244 252.377 106.213 238.609 115.553 241.616" stroke="#775625" stroke-width="3" stroke-miterlimit="10"/>
<path d="M91.5744 241.106C91.5744 241.106 101.742 251.163 80.5926 253.646C64.8928 251.315 76.5644 238.623 82 240.32" stroke="#775625" stroke-width="3" stroke-miterlimit="10"/>
<path d="M145.828 133.183C145.685 131.58 145.619 129.866 146.062 128.293C146.525 126.651 147.83 125.583 149.29 124.82C150.761 124.048 152.475 123.881 153.868 124.92C155.166 125.892 156.119 127.361 156.98 128.712C157.288 129.193 157.015 129.89 156.536 130.147C155.992 130.433 155.416 130.184 155.101 129.704C154.451 128.689 153.729 127.546 152.79 126.762C151.94 126.053 151.027 126.275 150.125 126.777C149.133 127.328 148.316 127.956 148.032 129.096C147.749 130.243 147.785 131.559 147.891 132.729C147.943 133.296 147.691 133.858 147.084 133.991C146.587 134.1 145.875 133.758 145.828 133.183Z" fill="#775625"/>
<path d="M145.55 122.483C145.289 119.127 142.129 116.857 138.947 116.761C137.288 116.714 135.594 117.166 134.193 118.061C132.931 118.866 131.768 120.452 132.449 122.002C132.998 123.248 131.126 124.239 130.577 122.993C129.612 120.811 130.435 118.403 132.215 116.897C133.966 115.42 136.316 114.694 138.59 114.642C143.218 114.542 147.308 117.916 147.672 122.595C147.719 123.17 147.079 123.615 146.555 123.6C145.92 123.573 145.596 123.051 145.55 122.483Z" fill="#775625"/>
<path d="M139.999 135.116C140.77 133.594 141.481 130.711 139.587 129.761C137.743 128.843 135.153 128.87 133.157 129.1C131.204 129.327 129.174 130.092 128.106 131.846C127.214 133.315 127.495 135.35 129.063 136.227C128.681 136.825 128.304 137.414 127.922 138.011C125.862 136.635 123.311 136.249 120.918 136.876C118.694 137.452 116.117 139.184 116.158 141.735C116.182 143.096 114.06 142.984 114.043 141.622C113.987 138.278 117.059 135.874 119.979 134.942C123 133.981 126.434 134.47 129.068 136.219C130.212 136.98 129.115 138.667 127.927 138.003C125.692 136.752 124.938 133.815 125.908 131.519C127.061 128.807 129.903 127.357 132.707 127.022C135.385 126.701 139.054 126.646 141.336 128.342C143.749 130.14 142.952 133.946 141.793 136.24C141.169 137.476 139.39 136.327 139.999 135.116Z" fill="#775625"/>
<path d="M122.32 128.555C122.365 128.53 122.41 128.506 122.447 128.476C122.315 128.599 122.183 128.722 122.051 128.845C121.972 128.978 121.969 128.639 121.959 128.591C121.925 128.403 121.882 128.21 121.827 128.027C121.724 127.688 121.572 127.36 121.396 127.051C121.032 126.415 120.517 125.849 119.941 125.404C118.593 124.37 116.956 123.964 115.277 123.957C114.416 123.958 113.567 124.073 112.73 124.25C112.296 124.345 111.871 124.453 111.45 124.575C111.239 124.636 111.033 124.717 110.82 124.771C110.744 124.788 110.671 124.818 110.6 124.856C110.64 124.775 110.642 124.781 110.606 124.883C110.429 125.197 110.461 125.834 110.436 126.179C110.409 126.648 110.404 127.119 110.433 127.583C110.505 128.565 110.74 129.533 111.066 130.459C111.258 131.003 110.77 131.609 110.259 131.721C109.645 131.856 109.189 131.458 108.997 130.914C108.321 128.995 108.119 126.891 108.452 124.887C108.623 123.859 109.036 123.168 110.054 122.799C110.912 122.495 111.8 122.256 112.696 122.088C116.227 121.441 120.192 122.073 122.548 125.026C123.507 126.225 125.165 129.325 123.296 130.43C122.132 131.12 121.148 129.246 122.32 128.555Z" fill="#775625"/>
<path d="M104.941 134.439C104.489 132.875 104.014 131.143 102.736 130.036C101.512 128.974 100.069 129.255 98.6428 129.707C97.2836 130.136 95.9069 130.88 95.1229 132.115C94.2851 133.435 94.231 135.096 94.145 136.612C94.0685 137.974 91.9551 137.867 92.0301 136.499C92.1353 134.545 92.306 132.46 93.4533 130.805C94.6167 129.124 96.4712 128.152 98.3915 127.578C100.407 126.976 102.384 126.989 104.051 128.387C105.745 129.808 106.422 131.93 107.018 133.982C107.387 135.297 105.316 135.745 104.941 134.439Z" fill="#775625"/>
<path d="M107.175 145.938C107.429 145.846 107.245 145.93 107.214 146.016C107.265 145.889 107.264 145.853 107.263 145.716C107.272 145.461 107.184 145.191 107.095 144.95C106.882 144.346 106.537 143.793 106.102 143.332C105.194 142.36 103.948 141.889 102.629 141.876C99.9255 141.849 97.7913 143.916 97.0032 146.382C96.5875 147.681 94.5717 147.033 94.9874 145.734C96.1559 142.07 99.679 139.249 103.648 139.836C105.652 140.133 107.37 141.238 108.456 142.952C109.263 144.22 110.168 147.087 108.161 147.826C107.626 148.023 107.022 147.939 106.726 147.382C106.492 146.913 106.631 146.13 107.175 145.938Z" fill="#775625"/>
<path d="M97.1487 151.911C97.8551 151.178 96.7 150.036 96.1876 149.613C95.7104 149.219 95.211 148.823 94.6785 148.506C94.1123 148.168 93.5669 148.122 92.9188 148.134C92.1779 148.152 91.4302 148.172 90.6885 148.22C90.0534 148.258 89.5895 148.418 89.1397 148.871C88.236 149.793 87.6763 151.095 87.3159 152.317C86.9309 153.624 84.9151 152.976 85.3002 151.669C85.7918 149.991 86.6869 148.044 88.111 146.957C88.9221 146.338 89.7943 146.16 90.7949 146.106C91.7748 146.057 92.8131 145.944 93.7874 146.034C94.7104 146.12 95.5407 146.509 96.2865 147.039C96.9987 147.548 97.7406 148.093 98.3253 148.745C99.5298 150.079 99.9078 152.093 98.578 153.477C97.6352 154.451 96.2059 152.885 97.1487 151.911Z" fill="#775625"/>
<path d="M88.7238 145.767C88.7053 144.729 88.6551 143.482 87.9367 142.649C87.1802 141.774 85.7149 141.655 84.6442 141.522C83.4333 141.376 82.1314 141.178 81.0878 141.957C80.0374 142.738 79.4449 143.989 78.8694 145.121C78.6132 145.633 77.8531 145.728 77.407 145.443C76.8853 145.109 76.8222 144.494 77.0853 143.981C77.8531 142.474 78.6951 141.008 80.1412 140.054C81.6502 139.057 83.4793 139.218 85.1825 139.466C86.7801 139.693 88.5376 140.022 89.6103 141.348C90.6434 142.625 90.8083 144.296 90.8456 145.878C90.8551 146.448 90.2765 146.907 89.7288 146.883C89.1213 146.851 88.7348 146.343 88.7238 145.767Z" fill="#775625"/>
<path d="M153.027 146.547C153.716 150.467 154.62 154.347 155.735 158.166C156.118 159.477 154.047 159.926 153.666 158.621C152.544 154.804 151.64 150.924 150.958 147.002C150.729 145.664 152.797 145.202 153.027 146.547Z" fill="#775625"/>
<path d="M142.15 151.768C142.592 155.388 143.543 158.924 145.015 162.26C145.245 162.781 145.102 163.412 144.571 163.696C144.091 163.946 143.374 163.778 143.136 163.252C141.59 159.745 140.543 156.034 140.08 152.223C140.013 151.652 140.287 151.093 140.887 150.961C141.405 150.847 142.082 151.197 142.15 151.768Z" fill="#775625"/>
<path d="M137.793 164.543C145.509 164.538 153.082 160.962 157.9 154.92C158.746 153.866 160.535 154.998 159.684 156.06C154.367 162.726 146.214 166.66 137.682 166.664C136.321 166.66 136.434 164.545 137.793 164.543Z" fill="#775625"/>
<path d="M143.51 173.598C151.021 174.245 158.426 171.119 163.308 165.402C164.195 164.368 165.624 165.934 164.743 166.96C159.522 173.077 151.402 176.403 143.39 175.714C142.048 175.597 142.147 173.485 143.51 173.598Z" fill="#775625"/>
<path d="M150.184 174.842C150.71 176.968 150.127 179.121 148.913 180.899C148.964 180.635 149.005 180.366 149.056 180.101C149.239 180.936 148.216 181.841 147.682 182.371C146.873 183.163 145.893 183.806 144.885 184.317C142.888 185.334 140.703 185.888 138.536 186.422C138.718 185.84 138.901 185.257 139.089 184.666C140.853 186.6 143.588 187.198 146.104 186.638C147.456 186.34 148.722 185.751 149.894 185.03C151.098 184.288 152.039 183.242 153.189 182.454C155.558 180.826 157.381 184.511 158.152 186.243C159.364 188.956 159.825 191.907 160.258 194.827C159.562 194.886 158.865 194.938 158.162 194.999C158.661 192.235 158.92 189.437 158.918 186.632C158.916 185.244 158.855 183.847 158.71 182.468C158.596 181.423 158.537 180.2 159.684 179.694C160.81 179.193 161.82 179.969 162.884 180.205C164.078 180.47 165.325 180.059 166.314 179.393C168.526 177.908 169.414 175.138 170.246 172.742C170.884 173.043 171.513 173.339 172.15 173.64C170.832 176.425 167.142 177.468 164.401 176.284C161.238 174.926 159.834 171.236 160.377 167.985C160.598 166.657 162.715 166.748 162.492 168.099C162.101 170.434 162.787 173.154 165.048 174.262C166.97 175.206 169.454 174.435 170.373 172.497C170.891 171.4 172.66 172.276 172.277 173.395C171.463 175.743 170.592 178.126 168.88 179.978C167.227 181.766 164.661 182.823 162.244 182.226C161.694 182.094 161.123 181.865 160.6 181.655C160.829 181.742 160.571 181.032 160.76 181.692C160.847 181.991 160.83 182.371 160.853 182.677C160.971 184.032 161.045 185.39 161.048 186.749C161.059 189.56 160.798 192.351 160.292 195.116C160.099 196.178 158.389 196.591 158.197 195.288C157.78 192.472 157.378 189.56 156.163 186.963C155.906 186.419 155.621 185.882 155.293 185.375C155.096 185.072 154.88 184.779 154.644 184.498C154.575 184.412 154.505 184.326 154.43 184.249C154.302 184.125 154.29 184.106 154.391 184.2C154.219 184.209 153.805 184.726 153.691 184.831C153.448 185.044 153.204 185.249 152.953 185.456C152.425 185.883 151.87 186.287 151.301 186.659C147.132 189.405 141.198 190.11 137.543 186.12C136.991 185.518 137.315 184.557 138.097 184.364C141.362 183.558 145.078 182.698 147.141 179.778C147.09 180.042 147.048 180.312 146.998 180.576C146.84 179.858 147.796 178.715 147.938 178.308C148.29 177.312 148.381 176.345 148.125 175.309C147.787 173.973 149.857 173.518 150.184 174.842Z" fill="#775625"/>
<path d="M75.4193 35.9775C76.3912 33.9847 77.0913 31.8419 77.5096 29.6671C77.7149 28.595 77.8368 27.5052 77.9004 26.4136C77.9553 25.4469 78.0418 24.3937 77.8615 23.4426C77.8123 23.1859 77.7458 22.7522 77.5263 22.5763C77.2142 22.3412 76.7607 22.6796 76.4869 22.8483C75.6201 23.3789 74.8402 24.1073 74.1774 24.875C72.8465 26.4189 71.9377 28.3039 71.3138 30.2346C70.4756 32.8345 70.1381 35.5411 69.8075 38.2462C69.6407 39.5919 67.5219 39.4939 67.6926 38.1329C68.3413 32.7978 69.1883 27.1803 72.9708 23.0722C74.3591 21.559 77.3569 19.0121 79.1984 21.2683C79.9219 22.1577 80.0404 23.3538 80.0657 24.4547C80.0996 25.7924 80.027 27.139 79.8503 28.4724C79.4524 31.4961 78.5545 34.3838 77.2187 37.1221C76.9641 37.6409 76.2009 37.722 75.7564 37.4438C75.2055 37.1093 75.17 36.488 75.4193 35.9775Z" fill="#775625"/>
</g>
<defs>
<clipPath id="clip0_1071_253">
<rect width="173.756" height="240.07" fill="white" transform="matrix(-0.976647 0.214852 0.214852 0.976647 169.698 0)"/>
</clipPath>
</defs>
</svg>
