<svg width="147" height="154" viewBox="0 0 147 154" fill="none" xmlns="http://www.w3.org/2000/svg">
<path d="M52.1785 17.8162L52.7364 11.3982L52.2676 8.323L50.6389 9.51704L48.6237 12.1342C48.6237 12.1342 47.8504 14.9803 47.9708 15.4101C48.0912 15.8398 47.9454 18.1224 47.9454 18.1224L48.1862 18.9819L52.2989 18.2459L52.1785 17.8162Z" fill="#FFE29E"/>
<path d="M118.929 70.3967L124.302 112.404L110.909 118.017L85.9385 127.072L77.8175 131.287L71.7611 134.21L69.8997 127.612L63.3887 97.3556L118.929 70.3967Z" fill="#ECD0A0"/>
<path d="M92.4937 54.3941L121.615 72.5804L112.641 77.5408L78.8702 94.6096L67.0067 99.6115L64.7664 100.493L58.2628 93.5356L43.1813 76.6485L39.6686 72.9779L92.4937 54.3941Z" fill="#FFE29E"/>
<path d="M90.1933 106.445C89.9415 106.94 90.3129 106.873 90.3129 106.873C90.3129 106.873 90.6842 106.806 91.7856 107.957C92.8871 109.109 92.6479 108.252 93.271 107.691C93.2984 107.663 93.3308 107.639 93.3606 107.621C93.7384 107.661 94.1104 107.652 94.4693 107.597C94.5522 107.587 94.6339 107.572 94.7169 107.548C94.9011 107.537 95.1005 107.497 95.319 107.386C95.6623 107.275 95.9874 107.126 96.3042 106.948C96.7586 106.858 96.9844 107.024 96.9844 107.024L99.1901 105.301C99.2121 105.324 99.2342 105.347 99.2525 105.371L99.4642 106.129C99.4642 106.129 100.075 106.919 100.194 107.347C100.266 107.604 100.771 108.421 101.171 109.042C101.549 110.202 101.816 111.408 102.071 112.586C102.283 109.967 102.141 107.253 101.649 104.554C101.662 104.489 101.68 104.427 101.705 104.378C101.957 103.883 101.957 103.883 101.957 103.883L102.819 104.177C102.819 104.177 102.931 104.189 103.099 104.204C103.566 104.381 104.043 104.398 104.492 104.291C104.621 104.29 104.728 104.284 104.795 104.272C105.166 104.206 106.161 103.577 106.161 103.577L106.407 102.841C106.992 101.904 107.27 100.721 107.534 99.5714C107.489 99.7189 107.426 99.8561 107.356 99.9811L107.432 99.7516L106.438 100.38C106.438 100.38 105.666 100.716 104.933 100.983C104.552 100.916 104.176 100.772 103.831 100.542C103.341 100.212 102.929 99.7553 102.608 99.2329C102.607 99.2286 102.607 99.2286 102.607 99.2286C102.526 98.9823 102.266 98.3859 102.019 97.8367C101.917 97.4457 101.861 97.0467 101.849 96.6575C102.182 96.3414 102.496 95.9973 102.787 95.6303L103.398 95.0799L99.9988 88.4954L97.5064 90.7416L95.3475 83.7096L90.262 85.747L90.0103 86.2419C90.0103 86.2419 90.0078 86.2468 90.0053 86.2518C89.9712 86.3253 89.7681 86.771 89.8781 87.165C89.9977 87.5932 90.4761 89.306 90.4761 89.306C90.4761 89.306 90.9081 90.0289 91.386 90.721C91.5287 90.9247 91.6763 91.132 91.8168 91.3137C92.2429 91.8622 92.0647 92.9554 91.9157 93.5668C91.4292 93.6541 90.9356 93.7158 90.4336 93.7475C89.5293 93.5816 88.5148 93.4535 88.5817 93.6933C88.7013 94.1215 91.861 99.8496 91.861 99.8496C91.861 99.8496 92.2323 99.783 92.6037 99.7163C92.975 99.6496 95.4422 100.106 95.4422 100.106L95.5618 100.534C95.5618 100.534 95.4297 101.457 95.5493 101.885C95.5636 101.937 95.5719 101.98 95.5715 102.021C95.5572 102.095 95.5417 102.166 95.5213 102.232C95.5188 102.237 95.5188 102.237 95.5188 102.237C95.4386 102.355 95.2975 102.38 95.2975 102.38C95.2975 102.38 95.1037 102.761 95.136 103.142L95.1372 103.147C95.0442 103.316 94.9376 103.479 94.82 103.631C94.5113 103.74 94.0327 103.911 93.5479 104.493C93.3117 104.778 93.1782 104.915 93.0874 104.981C93.0401 105.007 92.9918 105.029 92.9396 105.052C92.9359 105.053 92.9334 105.058 92.9248 105.055C92.8802 105.063 92.8394 105.07 92.7622 105.129C92.7585 105.13 92.7585 105.13 92.7548 105.13C91.9062 105.485 90.9777 105.679 90.0639 105.87C90.1519 105.975 90.2436 106.08 90.3366 106.176C90.294 106.247 90.2512 106.331 90.1933 106.445Z" fill="#ECD0A0"/>
<path d="M21.1383 59.0028C29.6941 70.5236 38.7072 74.1742 41.1728 74.997L47.1649 110.158L71.4505 135.514L64.3477 100.323L41.8322 75.2029L41.831 75.1986L41.3645 74.2288L46.0948 72.5701L46.881 74.1938L65.2749 93.8541L106.459 73.4119L86.6461 59.8586L85.9881 58.5675L90.885 56.8474L66.5364 11.6941L16.1613 21.6297L16.3581 22.0401C15.8472 24.5042 11.686 46.2742 21.1383 59.0028Z" fill="#ECD0A0"/>
<path d="M90.3527 106.969C90.3527 106.969 90.7265 106.902 91.8354 108.057C92.9442 109.213 92.7035 108.353 93.3308 107.79C93.3584 107.762 93.391 107.738 93.421 107.719C93.8343 107.429 94.2513 107.67 94.7865 107.647C94.972 107.636 95.1726 107.595 95.3926 107.484C95.4526 107.46 95.5139 107.426 95.5739 107.388C95.8981 107.186 96.1689 107.088 96.3846 107.045C96.842 106.954 97.0694 107.121 97.0694 107.121L99.2901 105.392L99.3252 105.363L99.566 106.223C99.566 106.223 100.181 107.015 100.301 107.445C100.373 107.703 100.882 108.523 101.284 109.146C101.554 109.563 101.771 109.889 101.771 109.889C101.771 109.889 102.145 109.823 101.904 108.963C101.663 108.104 102.158 108.466 101.796 107.177C101.435 105.888 101.929 106.251 101.929 106.251C101.929 106.251 101.638 105.211 101.765 104.642C101.778 104.577 101.796 104.515 101.822 104.465C102.075 103.968 102.075 103.968 102.075 103.968L102.943 104.264C102.943 104.264 103.057 104.276 103.226 104.291C103.589 104.325 104.223 104.374 104.628 104.378C104.757 104.377 104.866 104.372 104.933 104.36C105.307 104.293 106.308 103.662 106.308 103.662L106.556 102.923L107.509 100.058L107.511 100.053L107.588 99.8229L106.587 100.453C106.587 100.453 105.81 100.791 105.072 101.058C104.702 101.192 104.341 101.307 104.09 101.351C103.343 101.485 102.861 99.7663 102.741 99.3366L102.731 99.3022C102.73 99.2979 102.73 99.2979 102.73 99.2979C102.649 99.0506 102.387 98.4522 102.138 97.901C101.963 97.5127 101.793 97.1459 101.709 96.9579C101.667 96.8753 101.645 96.8251 101.645 96.8251L101.971 96.532L102.912 95.6867L103.527 95.1344L100.105 88.5263L97.5959 90.7805L95.4227 83.7233L90.3027 85.7678L90.0492 86.2644C90.0492 86.2644 90.0467 86.2694 90.0442 86.2744C90.0099 86.3482 89.8054 86.7954 89.9161 87.1908C90.0365 87.6205 90.518 89.3395 90.518 89.3395C90.518 89.3395 90.9529 90.0649 91.4341 90.7595C91.5777 90.964 91.7263 91.172 91.8676 91.3543C92.2967 91.9048 92.1172 93.0019 91.9671 93.6155C91.9023 93.8888 91.8422 94.0665 91.8422 94.0665C91.8422 94.0665 91.1929 93.921 90.475 93.7968C89.5646 93.6302 88.5432 93.5016 88.6106 93.7423C88.731 94.172 91.9117 99.9207 91.9117 99.9207C91.9117 99.9207 92.2856 99.8538 92.6594 99.7869C93.0333 99.72 95.5172 100.178 95.5172 100.178L95.6375 100.608C95.6375 100.608 95.5044 101.534 95.6248 101.964C95.6393 102.015 95.6476 102.059 95.6472 102.1C95.6526 102.189 95.6295 102.261 95.5967 102.312C95.5941 102.317 95.5941 102.317 95.5941 102.317C95.5134 102.435 95.3713 102.46 95.3713 102.46C95.3713 102.46 95.1762 102.843 95.2087 103.225L95.2099 103.229C95.2131 103.283 95.2238 103.335 95.2382 103.387C95.2924 103.58 95.1477 103.624 94.8905 103.715C94.5797 103.825 94.0979 103.997 93.6097 104.581C93.3719 104.867 93.2375 105.004 93.1461 105.07C93.0784 105.123 93.0347 105.135 92.9973 105.142C92.9936 105.142 92.9911 105.147 92.9824 105.144C92.9375 105.152 92.8964 105.16 92.8187 105.219C92.815 105.219 92.815 105.219 92.8112 105.22C92.7222 105.295 92.5878 105.432 92.3551 105.708C91.4742 106.768 91.9812 105.775 91.2335 105.909C90.654 106.012 90.5232 106.036 90.3766 106.27C90.3337 106.34 90.2906 106.425 90.2323 106.539C89.9788 107.036 90.3527 106.969 90.3527 106.969Z" fill="#FFE29E"/>
<path d="M65.5656 92.3502L98.872 75.4237C98.872 75.4237 97.0949 69.0776 94.9862 70.4081C92.8775 71.7387 92.7906 66.7174 91.2195 66.4233C89.6483 66.1292 87.0617 62.7848 85.2069 65.022C83.3521 67.2591 82.6656 70.7148 82.6656 70.7148C82.6656 70.7148 81.0905 70.9974 79.8963 72.64C78.7021 74.2825 78.4741 70.5148 78.4741 70.5148L76.3964 68.7073L74.1142 68.0742L71.9249 68.4671L71.0185 68.9963C71.0185 68.9963 70.7246 69.7632 70.9266 70.322C71.1286 70.8808 71.217 71.9647 71.217 71.9647L70.9797 73.2879C70.9797 73.2879 69.2777 73.1173 68.4772 74.6891L68.8839 73.1879L66.2804 71.2748C66.2804 71.2748 64.0858 70.9545 63.8664 71.5889C63.6471 72.2234 61.7842 74.343 61.9845 74.3641C62.186 74.3899 62.1731 75.8204 61.9063 76.3444C61.6395 76.8683 61.3597 78.8228 60.953 80.324C60.5463 81.8252 59.9116 79.5587 59.9116 79.5587L56.2537 78.3109L54.1112 79.4761L65.5656 92.3502Z" fill="#FEBA35"/>
<path d="M88.6004 136.201C85.6944 136.719 82.8889 135.542 82.3342 133.572C81.7795 131.601 83.6856 129.585 86.5917 129.067C89.4977 128.549 92.3032 129.727 92.8579 131.697C93.4126 133.667 91.5065 135.683 88.6004 136.201Z" fill="#FEBA35"/>
<path d="M74.6997 149.022C71.2717 149.632 67.9055 148.043 67.181 145.473C66.4566 142.903 68.6482 140.326 72.0762 139.716C75.5043 139.106 78.8705 140.695 79.5949 143.265C80.3194 145.835 78.1277 148.412 74.6997 149.022Z" fill="#FEBA35"/>
<path d="M56.8296 146.065C53.4016 146.675 50.0354 145.086 49.3109 142.516C48.5865 139.946 50.7781 137.369 54.2061 136.759C57.6341 136.15 61.0004 137.739 61.7248 140.309C62.4493 142.878 60.2576 145.456 56.8296 146.065Z" fill="#FEBA35"/>
<path d="M91.5694 125.602L124.29 112.394L119.038 70.8074L63.4208 97.4926L71.6138 134.346L81.0222 129.528" stroke="#775625" stroke-width="1.78582" stroke-miterlimit="10"/>
<path d="M44.0619 109.971L66.7413 134.751L60.0818 100.342L39.0539 75.792L39.0527 75.7879L38.3315 74.9465L38.4385 75.5912L44.0619 109.971Z" stroke="#775625" stroke-width="1.78582" stroke-miterlimit="10"/>
<path d="M39.714 74.0027L40.0431 73.8818L45.1365 72.0397L87.8612 56.5717L88.0913 56.4891L93.364 54.5788L123.23 73.7394" stroke="#775625" stroke-width="1.78582" stroke-miterlimit="10"/>
<path d="M24.6589 26.0867L47.5489 73.1393L48.3515 74.7846L67.1325 94.7069L109.191 73.9971L88.96 60.2625L88.2883 58.9543L88.1753 58.7372L66.8579 17.2116L24.6589 26.0867Z" stroke="#775625" stroke-width="1.78582" stroke-miterlimit="10"/>
<path d="M16.6913 22.8179C16.6913 22.8179 16.6738 22.8997 16.6402 23.0539M16.6402 23.0539C16.1095 25.5892 11.7878 47.9876 21.6007 61.0841C30.4829 72.938 39.8404 76.6944 42.4002 77.5411C42.845 77.6936 43.0848 77.7529 43.0848 77.7529L43.0836 77.7485L42.5993 76.7507L16.6402 23.0539ZM16.6402 23.0539L16.4359 22.6317L68.738 12.4114L94.0147 58.8696" stroke="#775625" stroke-width="1.78582" stroke-miterlimit="10"/>
<path d="M69.168 18.1103C69.168 18.1103 55.7356 50.4884 89.33 58.454" stroke="#775625" stroke-width="1.78582" stroke-miterlimit="10"/>
<path d="M54.9902 33.891C54.9902 33.891 55.5615 46.8812 62.9555 54.1496" stroke="#775625" stroke-width="1.78582" stroke-miterlimit="10"/>
<path d="M43.0972 37.4065C43.0972 37.4065 42.3844 49.3168 50.4483 59.8814" stroke="#775625" stroke-width="1.78582" stroke-miterlimit="10"/>
<path d="M91.2986 129.127C91.2986 129.127 99.6442 135.571 85.9174 137.547C80.4898 137.113 82.2483 128.872 86.7735 128.999" stroke="#775625" stroke-width="1.78582" stroke-miterlimit="10"/>
<path d="M78.888 141.564C78.888 141.564 82.1242 153.038 68.7979 147.528C64.1854 145.567 69.1521 137.269 74.6621 139.534" stroke="#775625" stroke-width="1.78582" stroke-miterlimit="10"/>
<path d="M60.4241 139.488C60.4241 139.488 66.8282 146.28 54.7912 147.022C45.6266 144.921 51.6483 137.317 54.8701 138.61" stroke="#775625" stroke-width="1.78582" stroke-miterlimit="10"/>
<path d="M93.9332 75.0544C93.6749 73.993 93.4461 72.8642 93.5108 71.8629C93.5789 70.8174 94.1714 70.2063 94.8824 69.8066C95.599 69.4011 96.5155 69.4092 97.3926 70.1863C98.211 70.9136 98.8959 71.9422 99.5179 72.8876C99.7405 73.2249 99.6696 73.663 99.4372 73.7988C99.1721 73.9491 98.8299 73.7459 98.6037 73.4092C98.135 72.6993 97.6126 71.8999 97.0118 71.3209C96.4677 70.797 95.9944 70.8802 95.5585 71.1477C95.0787 71.441 94.7036 71.7968 94.6766 72.5252C94.6512 73.2582 94.8189 74.1237 95.0081 74.8985C95.1005 75.2741 95.0258 75.6252 94.7095 75.6711C94.4506 75.7087 94.0236 75.4352 93.9332 75.0544Z" fill="#775625"/>
<path d="M93.0119 69.4339C92.485 67.1821 90.475 65.4519 88.7011 65.1673C87.7762 65.0206 86.8889 65.2039 86.2141 65.7016C85.6065 66.1501 85.143 67.1252 85.6968 68.2039C86.1429 69.0714 85.2183 69.6005 84.7722 68.733C83.9892 67.2141 84.1707 65.6683 84.9859 64.7901C85.7878 63.9286 87.0071 63.6082 88.2613 63.7316C90.8147 63.9868 93.4659 66.5166 94.2005 69.6557C94.2921 70.0419 93.9881 70.2933 93.6961 70.247C93.3411 70.1851 93.1019 69.8154 93.0119 69.4339Z" fill="#775625"/>
<path d="M89.6297 77.26C89.9015 76.2447 89.9825 74.2687 88.7786 73.4669C87.6076 72.6914 86.1131 72.5275 84.9852 72.5476C83.8819 72.5691 82.7956 72.9632 82.379 74.1202C82.0316 75.0897 82.4273 76.5402 83.4339 77.2678C83.2814 77.6608 83.1311 78.0482 82.9786 78.4412C81.6299 77.328 80.1107 76.8761 78.7989 77.1481C77.5792 77.3957 76.2874 78.4303 76.603 80.2264C76.7731 81.185 75.5335 80.9564 75.3672 79.9972C74.9522 77.6433 76.4534 76.1706 78.0346 75.7223C79.6714 75.2603 81.7128 75.8465 83.436 77.2623C84.1844 77.8779 83.7435 78.9866 82.9808 78.4356C81.5452 77.3981 80.7728 75.2807 81.0708 73.7354C81.4271 71.9103 82.904 71.0924 84.4872 71.0553C85.9984 71.0187 88.1135 71.2395 89.6273 72.5933C91.2285 74.0276 91.2033 76.6462 90.7961 78.1769C90.5765 79.002 89.4165 78.0685 89.6297 77.26Z" fill="#775625"/>
<path d="M79.0947 72.9406C79.1168 72.9276 79.139 72.9146 79.1558 72.8974C79.0972 72.9696 79.0385 73.0418 78.9798 73.1139C78.9514 73.1964 78.9116 72.9721 78.9003 72.9394C78.8603 72.813 78.8151 72.6825 78.7642 72.5577C78.669 72.3268 78.5484 72.0995 78.4165 71.8837C78.1443 71.4385 77.7968 71.0288 77.4302 70.6952C76.5716 69.9191 75.6253 69.5375 74.7011 69.4171C74.2281 69.3584 73.7738 69.3754 73.3339 69.4344C73.1058 69.4675 72.8845 69.5094 72.6664 69.5606C72.5574 69.5862 72.4532 69.6258 72.3425 69.6468C72.3027 69.6526 72.2661 69.6677 72.2311 69.6875C72.2439 69.6366 72.2455 69.6413 72.2375 69.7061C72.1758 69.9011 72.2653 70.3238 72.2905 70.5502C72.3287 70.858 72.3794 71.1689 72.4482 71.4771C72.5987 72.1309 72.8374 72.7865 73.1219 73.4208C73.289 73.7931 73.089 74.1599 72.821 74.1988C72.4987 74.2456 72.2025 73.9508 72.0354 73.5785C71.4466 72.2638 71.0972 70.8605 71.0533 69.5598C71.0312 68.8923 71.1795 68.4644 71.6977 68.2913C72.1354 68.1494 72.5965 68.0531 73.0702 68.004C74.939 67.8208 77.1909 68.5122 78.821 70.6255C79.4837 71.484 80.7465 73.6457 79.8441 74.2466C79.2819 74.622 78.5289 73.3164 79.0947 72.9406Z" fill="#775625"/>
<path d="M68.8652 76.4755C68.4346 75.398 67.9722 74.2062 67.1342 73.3765C66.3313 72.5813 65.5603 72.6689 64.8175 72.8714C64.1097 73.0637 63.4281 73.4655 63.1327 74.2373C62.817 75.0616 62.9766 76.1687 63.1019 77.1766C63.2149 78.0822 62.026 77.8639 61.9113 76.9535C61.7467 75.6539 61.6037 74.2718 62.0534 73.2445C62.5092 72.2014 63.4308 71.6804 64.4344 71.43C65.4877 71.1674 66.5901 71.3141 67.6781 72.3652C68.7835 73.4335 69.4026 74.9 69.9691 76.3146C70.3246 77.2195 69.2227 77.3752 68.8652 76.4755Z" fill="#775625"/>
<path d="M70.1057 83.1924C70.2359 83.1488 70.1437 83.1918 70.1361 83.247C70.1502 83.1662 70.1457 83.1423 70.1294 83.0512C70.1054 82.8825 70.0259 82.6973 69.9493 82.5313C69.7633 82.1156 69.5093 81.7246 69.2169 81.3883C68.6046 80.6804 67.8624 80.2816 67.1318 80.1811C65.6347 79.9757 64.6902 81.2001 64.5349 82.7821C64.4528 83.6155 63.2651 83.0453 63.3472 82.2119C63.5766 79.8616 65.203 78.2331 67.4634 78.8982C68.6044 79.2342 69.6795 80.0863 70.4743 81.299C71.0645 82.1971 71.8908 84.1627 70.8654 84.5134C70.5921 84.6073 70.2486 84.5096 70.0217 84.1195C69.8394 83.7919 69.8271 83.282 70.1057 83.1924Z" fill="#775625"/>
<path d="M64.1537 86.7346C64.4605 86.2966 63.6926 85.4591 63.3615 85.1433C63.0531 84.8488 62.7322 84.5512 62.402 84.3041C62.0507 84.0404 61.7442 83.9719 61.3875 83.9352C60.9803 83.896 60.5695 83.8574 60.1651 83.8375C59.8186 83.819 59.5805 83.8929 59.3834 84.1625C58.989 84.7116 58.8277 85.5366 58.7674 86.3224C58.7032 87.1628 57.5159 86.5928 57.5801 85.7524C57.6611 84.6735 57.9344 83.4437 58.5976 82.8211C58.9753 82.4662 59.437 82.409 59.9837 82.4426C60.5195 82.4779 61.0803 82.475 61.6288 82.6019C62.1485 82.7231 62.6514 83.0385 63.1237 83.4419C63.5749 83.8288 64.0468 84.2421 64.4439 84.7155C65.2609 85.6836 65.6986 87.0461 65.1212 87.8725C64.711 88.4534 63.7434 87.3154 64.1537 86.7346Z" fill="#775625"/>
<path d="M59.2053 83.1164C59.0775 82.4285 58.9083 81.5993 58.4179 80.9983C57.9017 80.3668 57.0805 80.1868 56.4752 80.0244C55.7912 79.8441 55.0511 79.6229 54.5643 80.0665C54.0738 80.5106 53.8891 81.298 53.7003 82.0074C53.6172 82.3286 53.2089 82.3388 52.9307 82.1192C52.6053 81.8622 52.5007 81.4506 52.5875 81.1288C52.8398 80.1845 53.1377 79.2727 53.8266 78.7409C54.5452 78.1851 55.5718 78.4187 56.5387 78.7003C57.445 78.9611 58.4511 79.3008 59.1928 80.2528C59.9071 81.1696 60.1875 82.2869 60.3876 83.3372C60.4574 83.7147 60.1906 83.9792 59.886 83.9253C59.5474 83.8616 59.2767 83.4986 59.2053 83.1164Z" fill="#775625"/>
<path d="M97.1042 83.0878C97.6622 85.4458 98.3103 87.7905 99.045 90.1095C99.2972 90.9059 98.4355 91.0699 98.1845 90.2776C97.4469 87.9592 96.7988 85.6144 96.2437 83.2559C96.0557 82.4514 96.9151 82.2791 97.1042 83.0878Z" fill="#775625"/>
<path d="M90.6416 86.1772C91.0941 88.3542 91.7645 90.5078 92.649 92.5686C92.7873 92.8902 92.7695 93.2588 92.5565 93.4C92.3635 93.5242 92.0367 93.3875 91.8943 93.0621C90.9651 90.8954 90.2401 88.6332 89.7651 86.3416C89.6946 85.9984 89.7753 85.6796 90.0295 85.632C90.2487 85.5909 90.5712 85.834 90.6416 86.1772Z" fill="#775625"/>
<path d="M88.9245 93.4963C93.433 94.0377 97.4544 92.0119 99.5858 88.0243C99.9607 87.3293 101.135 88.2666 100.758 88.9673C98.405 93.3661 94.0858 95.6079 89.0994 95.0081C88.3038 94.9088 88.1305 93.402 88.9245 93.4963Z" fill="#775625"/>
<path d="M92.1806 98.8024C96.6638 99.8001 100.66 98.0632 102.884 94.2759C103.288 93.5913 104.303 94.8238 103.901 95.5027C101.523 99.5552 97.13 101.387 92.348 100.324C91.547 100.144 91.3679 98.625 92.1806 98.8024Z" fill="#775625"/>
<path d="M95.174 99.1064C95.698 100.533 95.6227 101.9 95.1617 102.98C95.1595 102.811 95.1521 102.637 95.1498 102.468C95.3432 103.026 94.8882 103.548 94.657 103.858C94.3058 104.32 93.845 104.673 93.3539 104.938C92.3823 105.467 91.2559 105.679 90.1371 105.88C90.1712 105.511 90.2053 105.143 90.2414 104.769C91.417 106.154 92.9715 106.733 94.277 106.539C94.9789 106.437 95.6013 106.139 96.158 105.748C96.7294 105.345 97.1241 104.726 97.6612 104.289C98.7668 103.387 100.171 105.922 100.785 107.107C101.748 108.964 102.329 110.924 102.892 112.863C102.52 112.854 102.146 112.841 101.771 112.832C101.733 111.059 101.56 109.248 101.244 107.413C101.088 106.506 100.898 105.588 100.665 104.677C100.486 103.986 100.317 103.182 100.884 102.93C101.44 102.68 102.076 103.256 102.681 103.484C103.36 103.739 103.993 103.555 104.456 103.187C105.492 102.368 105.664 100.618 105.849 99.1088C106.229 99.3492 106.604 99.5855 106.985 99.826C106.58 101.556 104.69 101.986 103.067 101.024C101.195 99.9195 100.018 97.4106 99.9486 95.3224C99.92 94.4688 101.082 94.6735 101.111 95.5414C101.161 97.0412 101.838 98.8667 103.192 99.7461C104.343 100.495 105.608 100.161 105.89 98.9574C106.049 98.2754 107.109 98.9696 107.026 99.6745C106.847 101.154 106.64 102.653 105.917 103.746C105.218 104.802 103.941 105.317 102.56 104.761C102.246 104.637 101.91 104.448 101.602 104.275C101.736 104.348 101.516 103.866 101.693 104.31C101.774 104.512 101.807 104.759 101.854 104.96C102.07 105.855 102.262 106.747 102.416 107.636C102.737 109.474 102.908 111.281 102.943 113.055C102.957 113.736 102.073 113.888 101.822 113.023C101.28 111.154 100.735 109.222 99.7835 107.441C99.5828 107.068 99.3678 106.697 99.1325 106.344C98.9914 106.131 98.841 105.925 98.6816 105.726C98.6341 105.665 98.5867 105.604 98.5373 105.548C98.4536 105.458 98.4452 105.445 98.5102 105.513C98.4178 105.507 98.2507 105.817 98.2002 105.878C98.0921 106 97.9825 106.118 97.8692 106.236C97.6299 106.479 97.3735 106.705 97.1056 106.909C95.1463 108.419 91.9984 108.473 89.5636 105.614C89.1961 105.183 89.2645 104.577 89.668 104.504C91.3534 104.201 93.2777 103.893 94.072 102.125C94.0743 102.294 94.0817 102.468 94.0839 102.637C93.9177 102.157 94.3096 101.475 94.341 101.219C94.421 100.592 94.362 99.9656 94.1064 99.271C93.7733 98.3744 94.8476 98.2185 95.174 99.1064Z" fill="#775625"/>
<path d="M51.7938 17.6338C52.0889 16.4355 52.2265 15.1243 52.214 13.7742C52.2074 13.1086 52.1554 12.4262 52.0729 11.7389C51.9991 11.1302 51.9326 10.4687 51.7379 9.85434C51.6851 9.68846 51.6045 9.40931 51.4715 9.28341C51.2841 9.11391 51.0838 9.29839 50.959 9.38721C50.5638 9.66618 50.2347 10.0762 49.9709 10.5188C49.4412 11.4091 49.1676 12.5433 49.0472 13.7252C48.886 15.3169 48.997 17.0092 49.1113 18.701C49.167 19.5425 48.0531 19.3407 47.9978 18.4898C47.7705 15.1529 47.6166 11.6502 49.1515 9.29722C49.7142 8.43023 51.0058 7.01442 52.2038 8.56507C52.6749 9.17621 52.8634 9.94173 52.9931 10.6408C53.1525 11.4904 53.2573 12.3387 53.3065 13.1717C53.4196 15.0609 53.2579 16.831 52.8522 18.4775C52.7745 18.7894 52.3856 18.7905 52.1247 18.5849C51.8023 18.3367 51.718 17.9408 51.7938 17.6338Z" fill="#775625"/>
</svg>
