<svg width="131" height="130" viewBox="0 0 131 130" fill="none" xmlns="http://www.w3.org/2000/svg">
<path d="M16.7538 20.9158C30.084 17.2368 48.1631 37.4169 55.5364 47.9669C50.1332 54.9255 38.8771 68.4416 37.0782 66.8377C24.6557 50.4555 13.0134 23.8393 16.7538 20.9158Z" fill="#57CFB3"/>
<path d="M127.234 39.8324C125.86 37.2644 118.495 33.4764 114.985 31.9034L114.015 37.569C118.994 39.3935 128.609 42.4005 127.234 39.8324Z" fill="#7472C5"/>
<path d="M95.4587 19.1647C97.8974 18.5455 103.91 23.4195 106.611 25.9339L102.394 29.7478C99.0663 26.4781 93.0199 19.7839 95.4587 19.1647Z" fill="#7472C5"/>
<path d="M127.234 39.8324C125.86 37.2644 118.495 33.4764 114.985 31.9034L114.015 37.569C118.994 39.3935 128.609 42.4005 127.234 39.8324Z" stroke="#7472C5" stroke-width="0.36157"/>
<path d="M95.4587 19.1647C97.8974 18.5455 103.91 23.4195 106.611 25.9339L102.394 29.7478C99.0663 26.4781 93.0199 19.7839 95.4587 19.1647Z" stroke="#7472C5" stroke-width="0.36157"/>
<path d="M104.235 14.8906C102.3 15.5961 101.884 24.2076 101.918 28.4252C79.0766 29.3743 59.8077 41.6265 45.5835 52.7986C34.2041 61.7362 20.8835 82.2641 15.6457 91.4109C11.9563 94.6671 8.25207 101.29 22.95 101.733C41.3223 102.287 115.344 67.3342 117.398 42.091C119.452 16.8478 106.654 14.0088 104.235 14.8906Z" fill="#F69321"/>
<path d="M54.8629 50.6469C51.6574 53.2315 49.3865 56.3402 48.3009 59.2692C47.2137 62.2024 47.3246 64.9214 48.8185 66.7742C50.3124 68.627 52.946 69.3118 56.043 68.8714C59.1356 68.4315 62.6552 66.8714 65.8607 64.2869C69.0662 61.7023 71.3371 58.5936 72.4227 55.6645C73.5098 52.7314 73.399 50.0124 71.9051 48.1596C70.4112 46.3068 67.7776 45.6219 64.6806 46.0624C61.588 46.5023 58.0684 48.0623 54.8629 50.6469Z" fill="#7472C5" stroke="#5855AF" stroke-width="0.36157"/>
<ellipse cx="3.03524" cy="7.37805" rx="3.03524" ry="7.37805" transform="matrix(-0.89686 0.442315 0.442315 0.89686 19.415 97.832)" fill="#57CFB3"/>
<ellipse cx="3.03524" cy="7.37805" rx="3.03524" ry="7.37805" transform="matrix(-0.89686 0.442315 0.442315 0.89686 10.7793 80.1543)" fill="#57CFB3"/>
<path d="M116.314 27.918C116.314 27.918 112.844 29.2676 110.946 30.8867C109.049 32.5058 111.326 40.0233 108.683 44.1066C106.04 48.1899 75.5973 89.3724 20.6641 98.3696" stroke="#AE4F1A" stroke-width="0.723141" stroke-linecap="round"/>
<path d="M112.914 108.332C113.804 97.0805 92.323 75.3244 78.743 71.3794C65.1631 67.4344 52.864 82.4999 55.779 88.1827C58.694 93.8655 112.025 119.584 112.914 108.332Z" fill="#57CFB3"/>
<path d="M11.0147 96.0695C10.5385 98.8508 12.4072 101.492 15.1886 101.968C17.97 102.444 20.6108 100.575 21.087 97.794C21.5632 95.0126 19.6945 92.3718 16.9131 91.8956C14.1317 91.4194 11.4909 93.2881 11.0147 96.0695Z" fill="#D33E82"/>
<path d="M42.9845 96.684C41.0829 91.3907 35.2166 79.6084 26.9638 74.826" stroke="#4B3700" stroke-width="0.723141" stroke-linecap="round"/>
</svg>
