<svg width="204" height="202" viewBox="0 0 204 202" fill="none" xmlns="http://www.w3.org/2000/svg">
<rect width="204" height="202" fill="#1E1E1E"/>
<g clip-path="url(#clip0_0_1)">
<rect width="1920" height="14329" transform="translate(-1335 -643)" fill="white"/>
<path d="M585 -720H-1335V141.531C-1102.16 34.5564 -723.782 51.3668 -596.203 108.293C-468.623 165.219 -187.754 212.211 105 119.372C397.754 26.5333 585 48.3103 585 48.3103V-720Z" fill="#FBEABD"/>
<path d="M-1335.35 80.6052C-1219.63 -0.13705 -921.886 -27.3126 -670.91 38C-306.919 132.723 -284.648 190.445 108.993 80.6051C191.831 38.7074 403.08 -40.3017 585.37 -21.1557" stroke="#FF5249" stroke-width="6.65455" stroke-dasharray="26.62 26.62"/>
<path d="M25.1719 32.6313C45.9742 26.8899 74.1876 58.3821 85.694 74.8458C77.2621 85.705 59.6964 106.798 56.8891 104.295C37.5032 78.7293 19.3349 37.1935 25.1719 32.6313Z" fill="#57CFB3"/>
<path d="M197.582 62.15C195.437 58.1424 183.944 52.2311 178.465 49.7763L176.952 58.6179C184.722 61.4651 199.727 66.1576 197.582 62.15Z" fill="#7472C5"/>
<path d="M147.994 29.897C151.8 28.9307 161.183 36.5369 165.398 40.4607L158.818 46.4124C153.624 41.3099 144.188 30.8634 147.994 29.897Z" fill="#7472C5"/>
<path d="M197.582 62.15C195.437 58.1424 183.944 52.2311 178.465 49.7763L176.952 58.6179C184.722 61.4651 199.727 66.1576 197.582 62.15Z" stroke="#7472C5" stroke-width="0.478168"/>
<path d="M147.994 29.897C151.8 28.9307 161.183 36.5369 165.398 40.4607L158.818 46.4124C153.624 41.3099 144.188 30.8634 147.994 29.897Z" stroke="#7472C5" stroke-width="0.478168"/>
<path d="M161.689 23.2277C158.67 24.3285 158.02 37.7673 158.073 44.3491C122.428 45.8301 92.3578 64.9504 70.1602 82.3849C52.4022 96.3325 31.6148 128.367 23.4408 142.641C17.6834 147.723 11.9027 158.058 34.8395 158.75C63.5105 159.614 179.024 105.068 182.23 65.6752C185.435 26.282 165.464 21.8516 161.689 23.2277Z" fill="#FEBD59"/>
<path d="M84.6156 78.9942C79.6083 83.0316 76.0592 87.889 74.362 92.4683C72.6626 97.0531 72.8319 101.314 75.1765 104.222C77.5211 107.13 81.6495 108.199 86.4903 107.51C91.3254 106.823 96.8249 104.384 101.832 100.347C106.84 96.3096 110.389 91.4522 112.086 86.8729C113.785 82.2881 113.616 78.027 111.271 75.1191C108.927 72.2112 104.798 71.1422 99.9575 71.8307C95.1225 72.5184 89.623 74.9568 84.6156 78.9942Z" fill="#7472C5" stroke="#5855AF" stroke-width="0.478168"/>
<ellipse cx="4.73663" cy="11.5138" rx="4.73663" ry="11.5138" transform="matrix(-0.89686 0.442315 0.442315 0.89686 29.3252 152.663)" fill="#57CFB3"/>
<ellipse cx="4.73663" cy="11.5138" rx="4.73663" ry="11.5138" transform="matrix(-0.89686 0.442315 0.442315 0.89686 15.8467 125.075)" fill="#57CFB3"/>
<path d="M180.541 43.5591C180.541 43.5591 175.124 45.6653 172.164 48.192C169.203 50.7186 172.756 62.45 168.632 68.8222C164.507 75.1944 117 139.462 31.2739 153.502" stroke="#AE4F1A" stroke-width="0.956335" stroke-linecap="round"/>
<path d="M175.234 169.049C176.623 151.49 143.1 117.538 121.908 111.382C100.716 105.226 81.5227 128.736 86.0716 137.604C90.6206 146.473 173.846 186.608 175.234 169.049Z" fill="#57CFB3"/>
<path d="M16.2145 149.913C15.4713 154.253 18.3875 158.374 22.728 159.117C27.0685 159.861 31.1896 156.944 31.9327 152.604C32.6759 148.263 29.7597 144.142 25.4192 143.399C21.0787 142.656 16.9576 145.572 16.2145 149.913Z" fill="#D33E82"/>
<path d="M66.1046 150.871C63.1371 142.61 53.9823 124.223 41.1034 116.76" stroke="#4B3700" stroke-width="0.956335" stroke-linecap="round"/>
</g>
<defs>
<clipPath id="clip0_0_1">
<rect width="1920" height="14329" fill="white" transform="translate(-1335 -643)"/>
</clipPath>
</defs>
</svg>
