<svg width="100" height="105" viewBox="0 0 100 105" fill="none" xmlns="http://www.w3.org/2000/svg">
<path d="M98.5914 51.8942C100.511 50.555 100.28 47.6478 98.1749 46.6483L71.0653 33.7743C70.2751 33.3991 69.6867 32.7002 69.4508 31.8567L61.2208 2.42997C60.5752 0.121669 57.6354 -0.553462 56.0307 1.23804L35.9799 23.623C35.3751 24.2981 34.503 24.6707 33.5998 24.6396L3.9762 23.6196C1.61903 23.5384 0.058008 26.0575 1.18302 28.1271L15.7933 55.004C16.2034 55.7584 16.2744 56.6529 15.9887 57.4661L5.81211 86.4355C5.0285 88.6661 6.96606 90.8899 9.27906 90.4145L38.3474 84.4398C39.2336 84.2577 40.1528 84.479 40.8561 85.0438L64.1706 103.768C66.0365 105.266 68.8306 104.107 69.1035 101.721L72.5827 71.3062C72.6824 70.4344 73.1528 69.6461 73.8733 69.1434L98.5914 51.8942Z" fill="#6ACCB5"/>
</svg>
